<svg width="1108" height="279" viewBox="0 0 1108 279" fill="none" xmlns="http://www.w3.org/2000/svg">
<path d="M314.51 206.58C307.769 206.58 301.396 205.579 295.392 203.578C289.493 201.471 284.332 198.575 279.908 194.888C275.484 191.201 272.219 186.883 270.112 181.932C269.059 179.931 269.006 178.087 269.954 176.402C271.007 174.717 272.693 173.611 275.01 173.084C276.801 172.663 278.539 172.926 280.224 173.874C281.909 174.717 283.173 176.033 284.016 177.824C285.385 180.668 287.545 183.249 290.494 185.566C293.443 187.778 296.972 189.569 301.08 190.938C305.293 192.307 309.77 192.992 314.51 192.992C319.777 192.992 324.517 192.149 328.73 190.464C333.049 188.779 336.472 186.356 339 183.196C341.633 179.931 342.95 175.981 342.95 171.346C342.95 165.447 340.685 160.233 336.156 155.704C331.627 151.175 324.359 148.331 314.352 147.172C301.607 145.803 291.6 141.958 284.332 135.638C277.064 129.318 273.43 121.523 273.43 112.254C273.43 105.513 275.273 99.772 278.96 95.032C282.647 90.1867 287.703 86.5 294.128 83.972C300.553 81.444 307.821 80.18 315.932 80.18C322.041 80.18 327.466 81.0753 332.206 82.866C337.051 84.6567 341.212 87.132 344.688 90.292C348.269 93.3467 351.324 96.8753 353.852 100.878C355.116 102.985 355.59 104.986 355.274 106.882C355.063 108.673 354.115 110.095 352.43 111.148C350.534 112.201 348.533 112.412 346.426 111.78C344.425 111.148 342.897 109.937 341.844 108.146C340.264 105.302 338.263 102.827 335.84 100.72C333.417 98.6133 330.521 96.928 327.15 95.664C323.885 94.4 319.987 93.768 315.458 93.768C307.453 93.6627 300.869 95.2427 295.708 98.508C290.547 101.668 287.966 106.461 287.966 112.886C287.966 116.257 288.809 119.417 290.494 122.366C292.285 125.21 295.339 127.738 299.658 129.95C304.082 132.057 310.244 133.584 318.144 134.532C330.889 136.007 340.633 139.904 347.374 146.224C354.115 152.439 357.486 160.655 357.486 170.872C357.486 176.771 356.327 181.932 354.01 186.356C351.798 190.78 348.691 194.519 344.688 197.574C340.685 200.523 336.051 202.788 330.784 204.368C325.623 205.843 320.198 206.58 314.51 206.58ZM418.116 205.79C410.743 205.79 404.159 204.263 398.366 201.208C392.573 198.048 387.991 193.466 384.62 187.462C381.249 181.458 379.564 174.137 379.564 165.5V125.684C379.564 123.683 380.249 121.997 381.618 120.628C383.093 119.153 384.831 118.416 386.832 118.416C388.939 118.416 390.677 119.153 392.046 120.628C393.521 121.997 394.258 123.683 394.258 125.684V165.5C394.258 171.609 395.417 176.665 397.734 180.668C400.051 184.671 403.159 187.673 407.056 189.674C411.059 191.57 415.535 192.518 420.486 192.518C425.331 192.518 429.597 191.57 433.284 189.674C437.076 187.778 440.078 185.25 442.29 182.09C444.607 178.825 445.766 175.191 445.766 171.188H455.246C455.035 177.719 453.297 183.617 450.032 188.884C446.872 194.151 442.501 198.311 436.918 201.366C431.335 204.315 425.068 205.79 418.116 205.79ZM453.034 205C450.927 205 449.189 204.315 447.82 202.946C446.451 201.577 445.766 199.839 445.766 197.732V125.684C445.766 123.577 446.451 121.839 447.82 120.47C449.189 119.101 450.927 118.416 453.034 118.416C455.141 118.416 456.879 119.101 458.248 120.47C459.617 121.839 460.302 123.577 460.302 125.684V197.732C460.302 199.839 459.617 201.577 458.248 202.946C456.879 204.315 455.141 205 453.034 205ZM562.163 205.158C560.056 205.158 558.265 204.473 556.791 203.104C555.421 201.629 554.737 199.891 554.737 197.89V158.074C554.737 151.859 553.578 146.803 551.261 142.906C548.943 138.903 545.836 135.954 541.939 134.058C538.041 132.057 533.565 131.056 528.509 131.056C523.769 131.056 519.503 132.004 515.711 133.9C511.919 135.796 508.864 138.324 506.547 141.484C504.335 144.644 503.229 148.278 503.229 152.386H493.749C493.854 145.75 495.539 139.851 498.805 134.69C502.07 129.423 506.494 125.315 512.077 122.366C517.659 119.311 523.927 117.784 530.879 117.784C538.252 117.784 544.835 119.364 550.629 122.524C556.422 125.579 561.004 130.108 564.375 136.112C567.745 142.116 569.431 149.437 569.431 158.074V197.89C569.431 199.891 568.693 201.629 567.219 203.104C565.849 204.473 564.164 205.158 562.163 205.158ZM495.961 205.158C493.854 205.158 492.116 204.473 490.747 203.104C489.377 201.735 488.693 199.997 488.693 197.89V125.842C488.693 123.63 489.377 121.892 490.747 120.628C492.116 119.259 493.854 118.574 495.961 118.574C498.173 118.574 499.911 119.259 501.175 120.628C502.544 121.892 503.229 123.63 503.229 125.842V197.89C503.229 199.997 502.544 201.735 501.175 203.104C499.911 204.473 498.173 205.158 495.961 205.158ZM652.963 206.58C644.431 206.58 636.426 205 628.947 201.84C621.574 198.575 615.096 194.045 609.513 188.252C604.036 182.459 599.717 175.717 596.557 168.028C593.397 160.339 591.817 152.07 591.817 143.222C591.817 134.479 593.345 126.316 596.399 118.732C599.559 111.043 603.931 104.301 609.513 98.508C615.096 92.7147 621.574 88.1853 628.947 84.92C636.321 81.6547 644.326 80.022 652.963 80.022C660.863 80.022 667.815 81.128 673.819 83.34C679.823 85.4467 685.775 88.9227 691.673 93.768C692.516 94.4 693.095 95.1373 693.411 95.98C693.833 96.7173 693.991 97.5073 693.885 98.35C693.885 99.0873 693.727 99.8247 693.411 100.562C693.306 102.142 692.621 103.406 691.357 104.354C690.199 105.302 688.777 105.829 687.091 105.934C685.511 105.934 683.931 105.355 682.351 104.196C678.349 100.72 674.135 98.0867 669.711 96.296C665.287 94.5053 659.705 93.61 652.963 93.61C646.538 93.61 640.481 94.9267 634.793 97.56C629.211 100.193 624.26 103.775 619.941 108.304C615.623 112.833 612.252 118.1 609.829 124.104C607.407 130.108 606.195 136.481 606.195 143.222C606.195 150.174 607.407 156.652 609.829 162.656C612.252 168.555 615.623 173.821 619.941 178.456C624.26 182.985 629.211 186.514 634.793 189.042C640.481 191.57 646.538 192.834 652.963 192.834C658.546 192.834 663.813 191.939 668.763 190.148C673.714 188.252 678.401 185.619 682.825 182.248C684.511 180.984 686.196 180.457 687.881 180.668C689.567 180.773 690.989 181.458 692.147 182.722C693.306 183.881 693.885 185.513 693.885 187.62C693.885 188.568 693.727 189.516 693.411 190.464C693.095 191.307 692.516 192.097 691.673 192.834C686.196 197.574 680.139 201.05 673.503 203.262C666.973 205.474 660.126 206.58 652.963 206.58ZM733.609 242.762C732.661 242.762 731.555 242.499 730.291 241.972C726.077 240.076 724.919 237.074 726.815 232.966L776.111 122.682C778.007 118.679 781.009 117.521 785.117 119.206C789.435 120.997 790.647 123.999 788.751 128.212L739.297 238.338C738.033 241.287 736.137 242.762 733.609 242.762ZM751.937 201.84C750.041 202.683 748.303 202.788 746.723 202.156C745.143 201.524 743.879 200.313 742.931 198.522L707.065 128.054C706.117 126.263 705.959 124.525 706.591 122.84C707.328 121.155 708.645 119.943 710.541 119.206C712.331 118.363 714.017 118.258 715.597 118.89C717.282 119.417 718.546 120.628 719.389 122.524L753.991 192.834C755.044 194.73 755.413 196.521 755.097 198.206C754.781 199.786 753.727 200.997 751.937 201.84ZM839.858 205.632C831.536 205.632 824.11 203.736 817.58 199.944C811.049 196.047 805.888 190.833 802.096 184.302C798.409 177.666 796.566 170.187 796.566 161.866C796.566 153.334 798.356 145.75 801.938 139.114C805.624 132.478 810.628 127.317 816.948 123.63C823.268 119.838 830.588 117.942 838.91 117.942C845.124 117.942 850.865 119.153 856.132 121.576C861.398 123.999 866.086 127.633 870.194 132.478C871.563 133.953 872.037 135.533 871.616 137.218C871.3 138.903 870.246 140.378 868.456 141.642C867.192 142.59 865.717 142.906 864.032 142.59C862.346 142.274 860.872 141.379 859.608 139.904C854.025 133.9 847.126 130.898 838.91 130.898C833.327 130.898 828.376 132.215 824.058 134.848C819.844 137.481 816.526 141.115 814.104 145.75C811.786 150.279 810.628 155.651 810.628 161.866C810.628 167.765 811.839 173.031 814.262 177.666C816.79 182.301 820.266 185.987 824.69 188.726C829.114 191.359 834.17 192.676 839.858 192.676C843.755 192.676 847.231 192.202 850.286 191.254C853.34 190.306 856.079 188.779 858.502 186.672C859.976 185.408 861.504 184.723 863.084 184.618C864.769 184.513 866.244 184.987 867.508 186.04C869.088 187.409 869.983 188.937 870.194 190.622C870.404 192.307 869.825 193.782 868.456 195.046C860.872 202.103 851.339 205.632 839.858 205.632ZM915.324 205C910.9 205 906.95 203.789 903.474 201.366C899.998 198.943 897.259 195.625 895.258 191.412C893.362 187.093 892.414 182.143 892.414 176.56V88.712C892.414 86.6053 893.046 84.92 894.31 83.656C895.679 82.2867 897.417 81.602 899.524 81.602C901.736 81.602 903.474 82.2867 904.738 83.656C906.107 84.92 906.792 86.6053 906.792 88.712V176.56C906.792 180.668 907.582 184.039 909.162 186.672C910.847 189.305 912.901 190.622 915.324 190.622H919.274C921.275 190.622 922.855 191.307 924.014 192.676C925.172 193.94 925.752 195.678 925.752 197.89C925.752 199.997 924.856 201.735 923.066 203.104C921.38 204.368 919.168 205 916.43 205H915.324ZM977.211 205.632C968.469 205.632 960.727 203.789 953.985 200.102C947.349 196.31 942.135 191.149 938.343 184.618C934.551 177.982 932.655 170.398 932.655 161.866C932.655 153.229 934.446 145.645 938.027 139.114C941.609 132.478 946.559 127.317 952.879 123.63C959.199 119.838 966.52 117.942 974.841 117.942C982.952 117.942 989.957 119.785 995.855 123.472C1001.75 127.053 1006.28 132.057 1009.44 138.482C1012.6 144.802 1014.18 152.123 1014.18 160.444C1014.18 162.235 1013.55 163.762 1012.29 165.026C1011.13 166.185 1009.55 166.764 1007.55 166.764H942.609V155.072H1007.71L1001.23 159.654C1001.12 154.071 1000.02 149.068 997.909 144.644C995.803 140.22 992.801 136.744 988.903 134.216C985.006 131.688 980.319 130.424 974.841 130.424C968.837 130.424 963.623 131.793 959.199 134.532C954.881 137.271 951.563 141.01 949.245 145.75C946.928 150.49 945.769 155.862 945.769 161.866C945.769 167.87 947.086 173.242 949.719 177.982C952.458 182.617 956.145 186.303 960.779 189.042C965.519 191.781 970.997 193.15 977.211 193.15C980.582 193.15 984.058 192.518 987.639 191.254C991.326 189.99 994.223 188.515 996.329 186.83C997.804 185.671 999.384 185.092 1001.07 185.092C1002.75 184.987 1004.23 185.461 1005.49 186.514C1007.07 187.989 1007.92 189.621 1008.02 191.412C1008.13 193.097 1007.39 194.572 1005.81 195.836C1002.23 198.68 997.751 201.05 992.379 202.946C987.113 204.737 982.057 205.632 977.211 205.632Z" fill="black"/>
<path d="M314.51 206.58C307.769 206.58 301.396 205.579 295.392 203.578C289.493 201.471 284.332 198.575 279.908 194.888C275.484 191.201 272.219 186.883 270.112 181.932C269.059 179.931 269.006 178.087 269.954 176.402C271.007 174.717 272.693 173.611 275.01 173.084C276.801 172.663 278.539 172.926 280.224 173.874C281.909 174.717 283.173 176.033 284.016 177.824C285.385 180.668 287.545 183.249 290.494 185.566C293.443 187.778 296.972 189.569 301.08 190.938C305.293 192.307 309.77 192.992 314.51 192.992C319.777 192.992 324.517 192.149 328.73 190.464C333.049 188.779 336.472 186.356 339 183.196C341.633 179.931 342.95 175.981 342.95 171.346C342.95 165.447 340.685 160.233 336.156 155.704C331.627 151.175 324.359 148.331 314.352 147.172C301.607 145.803 291.6 141.958 284.332 135.638C277.064 129.318 273.43 121.523 273.43 112.254C273.43 105.513 275.273 99.772 278.96 95.032C282.647 90.1867 287.703 86.5 294.128 83.972C300.553 81.444 307.821 80.18 315.932 80.18C322.041 80.18 327.466 81.0753 332.206 82.866C337.051 84.6567 341.212 87.132 344.688 90.292C348.269 93.3467 351.324 96.8753 353.852 100.878C355.116 102.985 355.59 104.986 355.274 106.882C355.063 108.673 354.115 110.095 352.43 111.148C350.534 112.201 348.533 112.412 346.426 111.78C344.425 111.148 342.897 109.937 341.844 108.146C340.264 105.302 338.263 102.827 335.84 100.72C333.417 98.6133 330.521 96.928 327.15 95.664C323.885 94.4 319.987 93.768 315.458 93.768C307.453 93.6627 300.869 95.2427 295.708 98.508C290.547 101.668 287.966 106.461 287.966 112.886C287.966 116.257 288.809 119.417 290.494 122.366C292.285 125.21 295.339 127.738 299.658 129.95C304.082 132.057 310.244 133.584 318.144 134.532C330.889 136.007 340.633 139.904 347.374 146.224C354.115 152.439 357.486 160.655 357.486 170.872C357.486 176.771 356.327 181.932 354.01 186.356C351.798 190.78 348.691 194.519 344.688 197.574C340.685 200.523 336.051 202.788 330.784 204.368C325.623 205.843 320.198 206.58 314.51 206.58ZM418.116 205.79C410.743 205.79 404.159 204.263 398.366 201.208C392.573 198.048 387.991 193.466 384.62 187.462C381.249 181.458 379.564 174.137 379.564 165.5V125.684C379.564 123.683 380.249 121.997 381.618 120.628C383.093 119.153 384.831 118.416 386.832 118.416C388.939 118.416 390.677 119.153 392.046 120.628C393.521 121.997 394.258 123.683 394.258 125.684V165.5C394.258 171.609 395.417 176.665 397.734 180.668C400.051 184.671 403.159 187.673 407.056 189.674C411.059 191.57 415.535 192.518 420.486 192.518C425.331 192.518 429.597 191.57 433.284 189.674C437.076 187.778 440.078 185.25 442.29 182.09C444.607 178.825 445.766 175.191 445.766 171.188H455.246C455.035 177.719 453.297 183.617 450.032 188.884C446.872 194.151 442.501 198.311 436.918 201.366C431.335 204.315 425.068 205.79 418.116 205.79ZM453.034 205C450.927 205 449.189 204.315 447.82 202.946C446.451 201.577 445.766 199.839 445.766 197.732V125.684C445.766 123.577 446.451 121.839 447.82 120.47C449.189 119.101 450.927 118.416 453.034 118.416C455.141 118.416 456.879 119.101 458.248 120.47C459.617 121.839 460.302 123.577 460.302 125.684V197.732C460.302 199.839 459.617 201.577 458.248 202.946C456.879 204.315 455.141 205 453.034 205ZM562.163 205.158C560.056 205.158 558.265 204.473 556.791 203.104C555.421 201.629 554.737 199.891 554.737 197.89V158.074C554.737 151.859 553.578 146.803 551.261 142.906C548.943 138.903 545.836 135.954 541.939 134.058C538.041 132.057 533.565 131.056 528.509 131.056C523.769 131.056 519.503 132.004 515.711 133.9C511.919 135.796 508.864 138.324 506.547 141.484C504.335 144.644 503.229 148.278 503.229 152.386H493.749C493.854 145.75 495.539 139.851 498.805 134.69C502.07 129.423 506.494 125.315 512.077 122.366C517.659 119.311 523.927 117.784 530.879 117.784C538.252 117.784 544.835 119.364 550.629 122.524C556.422 125.579 561.004 130.108 564.375 136.112C567.745 142.116 569.431 149.437 569.431 158.074V197.89C569.431 199.891 568.693 201.629 567.219 203.104C565.849 204.473 564.164 205.158 562.163 205.158ZM495.961 205.158C493.854 205.158 492.116 204.473 490.747 203.104C489.377 201.735 488.693 199.997 488.693 197.89V125.842C488.693 123.63 489.377 121.892 490.747 120.628C492.116 119.259 493.854 118.574 495.961 118.574C498.173 118.574 499.911 119.259 501.175 120.628C502.544 121.892 503.229 123.63 503.229 125.842V197.89C503.229 199.997 502.544 201.735 501.175 203.104C499.911 204.473 498.173 205.158 495.961 205.158ZM652.963 206.58C644.431 206.58 636.426 205 628.947 201.84C621.574 198.575 615.096 194.045 609.513 188.252C604.036 182.459 599.717 175.717 596.557 168.028C593.397 160.339 591.817 152.07 591.817 143.222C591.817 134.479 593.345 126.316 596.399 118.732C599.559 111.043 603.931 104.301 609.513 98.508C615.096 92.7147 621.574 88.1853 628.947 84.92C636.321 81.6547 644.326 80.022 652.963 80.022C660.863 80.022 667.815 81.128 673.819 83.34C679.823 85.4467 685.775 88.9227 691.673 93.768C692.516 94.4 693.095 95.1373 693.411 95.98C693.833 96.7173 693.991 97.5073 693.885 98.35C693.885 99.0873 693.727 99.8247 693.411 100.562C693.306 102.142 692.621 103.406 691.357 104.354C690.199 105.302 688.777 105.829 687.091 105.934C685.511 105.934 683.931 105.355 682.351 104.196C678.349 100.72 674.135 98.0867 669.711 96.296C665.287 94.5053 659.705 93.61 652.963 93.61C646.538 93.61 640.481 94.9267 634.793 97.56C629.211 100.193 624.26 103.775 619.941 108.304C615.623 112.833 612.252 118.1 609.829 124.104C607.407 130.108 606.195 136.481 606.195 143.222C606.195 150.174 607.407 156.652 609.829 162.656C612.252 168.555 615.623 173.821 619.941 178.456C624.26 182.985 629.211 186.514 634.793 189.042C640.481 191.57 646.538 192.834 652.963 192.834C658.546 192.834 663.813 191.939 668.763 190.148C673.714 188.252 678.401 185.619 682.825 182.248C684.511 180.984 686.196 180.457 687.881 180.668C689.567 180.773 690.989 181.458 692.147 182.722C693.306 183.881 693.885 185.513 693.885 187.62C693.885 188.568 693.727 189.516 693.411 190.464C693.095 191.307 692.516 192.097 691.673 192.834C686.196 197.574 680.139 201.05 673.503 203.262C666.973 205.474 660.126 206.58 652.963 206.58ZM733.609 242.762C732.661 242.762 731.555 242.499 730.291 241.972C726.077 240.076 724.919 237.074 726.815 232.966L776.111 122.682C778.007 118.679 781.009 117.521 785.117 119.206C789.435 120.997 790.647 123.999 788.751 128.212L739.297 238.338C738.033 241.287 736.137 242.762 733.609 242.762ZM751.937 201.84C750.041 202.683 748.303 202.788 746.723 202.156C745.143 201.524 743.879 200.313 742.931 198.522L707.065 128.054C706.117 126.263 705.959 124.525 706.591 122.84C707.328 121.155 708.645 119.943 710.541 119.206C712.331 118.363 714.017 118.258 715.597 118.89C717.282 119.417 718.546 120.628 719.389 122.524L753.991 192.834C755.044 194.73 755.413 196.521 755.097 198.206C754.781 199.786 753.727 200.997 751.937 201.84ZM839.858 205.632C831.536 205.632 824.11 203.736 817.58 199.944C811.049 196.047 805.888 190.833 802.096 184.302C798.409 177.666 796.566 170.187 796.566 161.866C796.566 153.334 798.356 145.75 801.938 139.114C805.624 132.478 810.628 127.317 816.948 123.63C823.268 119.838 830.588 117.942 838.91 117.942C845.124 117.942 850.865 119.153 856.132 121.576C861.398 123.999 866.086 127.633 870.194 132.478C871.563 133.953 872.037 135.533 871.616 137.218C871.3 138.903 870.246 140.378 868.456 141.642C867.192 142.59 865.717 142.906 864.032 142.59C862.346 142.274 860.872 141.379 859.608 139.904C854.025 133.9 847.126 130.898 838.91 130.898C833.327 130.898 828.376 132.215 824.058 134.848C819.844 137.481 816.526 141.115 814.104 145.75C811.786 150.279 810.628 155.651 810.628 161.866C810.628 167.765 811.839 173.031 814.262 177.666C816.79 182.301 820.266 185.987 824.69 188.726C829.114 191.359 834.17 192.676 839.858 192.676C843.755 192.676 847.231 192.202 850.286 191.254C853.34 190.306 856.079 188.779 858.502 186.672C859.976 185.408 861.504 184.723 863.084 184.618C864.769 184.513 866.244 184.987 867.508 186.04C869.088 187.409 869.983 188.937 870.194 190.622C870.404 192.307 869.825 193.782 868.456 195.046C860.872 202.103 851.339 205.632 839.858 205.632ZM915.324 205C910.9 205 906.95 203.789 903.474 201.366C899.998 198.943 897.259 195.625 895.258 191.412C893.362 187.093 892.414 182.143 892.414 176.56V88.712C892.414 86.6053 893.046 84.92 894.31 83.656C895.679 82.2867 897.417 81.602 899.524 81.602C901.736 81.602 903.474 82.2867 904.738 83.656C906.107 84.92 906.792 86.6053 906.792 88.712V176.56C906.792 180.668 907.582 184.039 909.162 186.672C910.847 189.305 912.901 190.622 915.324 190.622H919.274C921.275 190.622 922.855 191.307 924.014 192.676C925.172 193.94 925.752 195.678 925.752 197.89C925.752 199.997 924.856 201.735 923.066 203.104C921.38 204.368 919.168 205 916.43 205H915.324ZM977.211 205.632C968.469 205.632 960.727 203.789 953.985 200.102C947.349 196.31 942.135 191.149 938.343 184.618C934.551 177.982 932.655 170.398 932.655 161.866C932.655 153.229 934.446 145.645 938.027 139.114C941.609 132.478 946.559 127.317 952.879 123.63C959.199 119.838 966.52 117.942 974.841 117.942C982.952 117.942 989.957 119.785 995.855 123.472C1001.75 127.053 1006.28 132.057 1009.44 138.482C1012.6 144.802 1014.18 152.123 1014.18 160.444C1014.18 162.235 1013.55 163.762 1012.29 165.026C1011.13 166.185 1009.55 166.764 1007.55 166.764H942.609V155.072H1007.71L1001.23 159.654C1001.12 154.071 1000.02 149.068 997.909 144.644C995.803 140.22 992.801 136.744 988.903 134.216C985.006 131.688 980.319 130.424 974.841 130.424C968.837 130.424 963.623 131.793 959.199 134.532C954.881 137.271 951.563 141.01 949.245 145.75C946.928 150.49 945.769 155.862 945.769 161.866C945.769 167.87 947.086 173.242 949.719 177.982C952.458 182.617 956.145 186.303 960.779 189.042C965.519 191.781 970.997 193.15 977.211 193.15C980.582 193.15 984.058 192.518 987.639 191.254C991.326 189.99 994.223 188.515 996.329 186.83C997.804 185.671 999.384 185.092 1001.07 185.092C1002.75 184.987 1004.23 185.461 1005.49 186.514C1007.07 187.989 1007.92 189.621 1008.02 191.412C1008.13 193.097 1007.39 194.572 1005.81 195.836C1002.23 198.68 997.751 201.05 992.379 202.946C987.113 204.737 982.057 205.632 977.211 205.632Z" fill="url(#paint0_linear_303_23)"/>
<mask id="mask0_303_23" style="mask-type:luminance" maskUnits="userSpaceOnUse" x="54" y="47" width="159" height="185">
<path d="M212.791 47H54.1191V232H212.791V47Z" fill="white"/>
</mask>
<g mask="url(#mask0_303_23)">
<path d="M142.628 125.678C139.027 125.678 135.573 124.333 133.026 121.941C130.479 119.548 129.049 116.303 129.049 112.919C129.049 109.535 130.479 106.29 133.026 103.897C135.573 101.505 139.027 100.16 142.628 100.16C154.03 100.149 164.96 95.8882 173.022 88.3142C181.083 80.7401 185.619 70.4707 185.632 59.7591C185.632 56.3753 187.062 53.1301 189.609 50.7373C192.156 48.3446 195.61 47.0004 199.211 47.0004C202.813 47.0004 206.267 48.3446 208.814 50.7373C211.361 53.1301 212.791 56.3753 212.791 59.7591C212.77 77.2359 205.371 93.9913 192.218 106.349C179.064 118.707 161.23 125.658 142.628 125.678Z" fill="#EC6C0C"/>
<path d="M67.6994 232C64.0977 232 60.6435 230.656 58.0967 228.263C55.5499 225.87 54.1191 222.625 54.1191 219.241C54.14 201.764 61.5389 185.008 74.6925 172.65C87.8462 160.292 105.68 153.341 124.282 153.322C127.884 153.322 131.338 154.666 133.884 157.059C136.431 159.451 137.862 162.696 137.862 166.081C137.862 169.464 136.431 172.709 133.884 175.102C131.338 177.495 127.884 178.839 124.282 178.839C112.881 178.851 101.95 183.111 93.8886 190.685C85.8267 198.26 81.2917 208.529 81.2787 219.241C81.2787 222.624 79.8481 225.87 77.3015 228.263C74.7549 230.656 71.3009 232 67.6994 232Z" fill="#BE3818"/>
<path d="M142.628 232C139.046 231.972 135.621 230.616 133.098 228.226C130.576 225.837 129.16 222.607 129.16 219.241C129.16 215.876 130.576 212.646 133.098 210.257C135.621 207.867 139.046 206.511 142.628 206.483C148.276 206.483 153.868 205.437 159.085 203.408C164.302 201.377 169.042 198.401 173.036 194.649C177.029 190.897 180.196 186.443 182.358 181.542C184.519 176.64 185.631 171.386 185.631 166.08C185.631 160.774 184.519 155.521 182.358 150.618C180.196 145.717 177.029 141.263 173.036 137.511C169.042 133.759 164.302 130.783 159.085 128.753C153.868 126.723 148.276 125.678 142.628 125.678C139.027 125.678 135.573 124.333 133.026 121.941C130.479 119.548 129.049 116.303 129.049 112.919C129.049 109.535 130.479 106.29 133.026 103.897C135.573 101.504 139.027 100.16 142.628 100.16C151.864 100.129 161.015 101.811 169.556 105.109C178.099 108.408 185.864 113.258 192.406 119.383C198.948 125.507 204.14 132.785 207.681 140.798C211.223 148.811 213.047 157.403 213.047 166.08C213.047 174.757 211.223 183.349 207.681 191.362C204.14 199.375 198.948 206.653 192.406 212.777C185.864 218.902 178.099 223.753 169.556 227.052C161.015 230.35 151.864 232.031 142.628 232Z" fill="url(#paint1_linear_303_23)"/>
<path d="M191.26 107.228C198.071 101.089 203.491 93.719 207.191 85.5613C210.891 77.4035 212.796 68.6267 212.791 59.7591C212.791 56.3753 211.361 53.1301 208.814 50.7373C206.267 48.3446 202.813 47.0004 199.212 47.0004C195.61 47.0004 192.156 48.3446 189.609 50.7373C187.062 53.1301 185.632 56.3753 185.632 59.7591C185.628 66.6221 183.764 73.3713 180.215 79.37C176.667 85.3687 171.55 90.4195 165.348 94.0459C174.882 96.665 183.715 101.158 191.26 107.228Z" fill="url(#paint2_linear_303_23)"/>
<path d="M124.282 178.839C105.674 178.839 87.828 171.894 74.6701 159.531C61.5121 147.169 54.1201 130.402 54.1201 112.919C54.1201 95.4364 61.5121 78.6696 74.6701 66.3073C87.828 53.9451 105.674 47 124.282 47C127.884 47 131.338 48.3442 133.884 50.7369C136.431 53.1296 137.862 56.3748 137.862 59.7586C137.862 63.1424 136.431 66.3876 133.884 68.7804C131.338 71.1731 127.884 72.5173 124.282 72.5173C118.635 72.5173 113.043 73.5623 107.826 75.5927C102.608 77.6231 97.868 80.5991 93.8748 84.3507C89.8817 88.1025 86.7141 92.5563 84.553 97.4582C82.3919 102.36 81.2797 107.614 81.2797 112.919C81.2797 118.225 82.3919 123.479 84.553 128.381C86.7141 133.282 89.8817 137.736 93.8748 141.488C97.868 145.239 102.608 148.216 107.826 150.246C113.043 152.276 118.635 153.322 124.282 153.322C127.884 153.322 131.338 154.666 133.884 157.059C136.431 159.451 137.862 162.696 137.862 166.08C137.862 169.464 136.431 172.709 133.884 175.102C131.338 177.495 127.884 178.839 124.282 178.839Z" fill="url(#paint3_linear_303_23)"/>
<path d="M75.651 171.771C68.8394 177.91 63.4203 185.28 59.72 193.438C56.0196 201.596 54.1144 210.373 54.1191 219.241C54.1043 220.926 54.4446 222.596 55.1204 224.156C55.7962 225.716 56.7941 227.135 58.0566 228.331C59.3191 229.527 60.8211 230.477 62.4761 231.124C64.131 231.772 65.9061 232.106 67.6989 232.106C69.4918 232.106 71.2669 231.772 72.9219 231.124C74.5768 230.477 76.0788 229.527 77.3413 228.331C78.6038 227.135 79.6017 225.716 80.2775 224.156C80.9533 222.596 81.2936 220.926 81.2787 219.241C81.2824 212.378 83.1465 205.629 86.6955 199.629C90.2444 193.63 95.3612 188.58 101.563 184.953C92.0292 182.334 83.1966 177.841 75.651 171.771Z" fill="#E64A1A"/>
</g>
<defs>
<linearGradient id="paint0_linear_303_23" x1="260" y1="154" x2="1021" y2="154" gradientUnits="userSpaceOnUse">
<stop stop-color="#E64A1A"/>
<stop offset="1" stop-color="#F39519"/>
</linearGradient>
<linearGradient id="paint1_linear_303_23" x1="171.047" y1="232" x2="171.047" y2="100.16" gradientUnits="userSpaceOnUse">
<stop stop-color="#E9592D"/>
<stop offset="1" stop-color="#F39519"/>
</linearGradient>
<linearGradient id="paint2_linear_303_23" x1="178.205" y1="101.024" x2="218.868" y2="59.995" gradientUnits="userSpaceOnUse">
<stop offset="0.005" stop-color="#F39519"/>
<stop offset="0.146" stop-color="#F39519"/>
<stop offset="1" stop-color="#F39519"/>
</linearGradient>
<linearGradient id="paint3_linear_303_23" x1="95.991" y1="178.839" x2="95.991" y2="47" gradientUnits="userSpaceOnUse">
<stop stop-color="#E9592D"/>
<stop offset="1" stop-color="#F39519"/>
</linearGradient>
</defs>
</svg>
