<svg width="246" height="50" viewBox="0 0 246 50" fill="none" xmlns="http://www.w3.org/2000/svg">
<path d="M66.6883 40.7587C64.9618 40.7587 63.3297 40.503 61.792 39.9919C60.2812 39.4538 58.9594 38.7141 57.8264 37.7724C56.6934 36.8307 55.8572 35.7278 55.3176 34.4633C55.0479 33.9522 55.0343 33.4812 55.2771 33.0508C55.5468 32.6205 55.9786 32.338 56.572 32.2034C57.0307 32.0959 57.4758 32.163 57.9073 32.4052C58.3389 32.6205 58.6626 32.9566 58.8785 33.414C59.2291 34.1404 59.7823 34.7996 60.5376 35.3914C61.2928 35.9564 62.1966 36.4139 63.2487 36.7635C64.3277 37.1132 65.4743 37.2881 66.6883 37.2881C68.0372 37.2881 69.2511 37.0728 70.3301 36.6424C71.4363 36.2121 72.3129 35.5932 72.9604 34.7861C73.6347 33.9522 73.972 32.9433 73.972 31.7595C73.972 30.2528 73.3919 28.9211 72.232 27.7643C71.0721 26.6076 69.2107 25.8812 66.6478 25.5851C63.3837 25.2355 60.8208 24.2534 58.9594 22.6392C57.098 21.025 56.1673 19.0341 56.1673 16.6666C56.1673 14.9449 56.6394 13.4786 57.5836 12.2679C58.5279 11.0304 59.8228 10.0888 61.4683 9.44308C63.1138 8.7974 64.9752 8.47456 67.0525 8.47456C68.617 8.47456 70.0064 8.70322 71.2204 9.16059C72.4612 9.61796 73.5269 10.2502 74.4171 11.0573C75.3342 11.8375 76.1166 12.7387 76.7641 13.7611C77.0878 14.2992 77.2092 14.8103 77.1283 15.2946C77.0742 15.752 76.8314 16.1152 76.3999 16.3842C75.9143 16.6531 75.4018 16.707 74.8622 16.5456C74.3497 16.3842 73.9584 16.0749 73.6887 15.6174C73.2841 14.891 72.7716 14.2589 72.151 13.7207C71.5305 13.1826 70.7888 12.7522 69.9255 12.4294C69.0893 12.1065 68.091 11.9451 66.9311 11.9451C64.8809 11.9182 63.1947 12.3218 61.8729 13.1558C60.5512 13.9629 59.8901 15.187 59.8901 16.8281C59.8901 17.6891 60.106 18.4962 60.5376 19.2494C60.9963 19.9758 61.7784 20.6215 62.8845 21.1864C64.0176 21.7246 65.5957 22.1146 67.619 22.3567C70.8831 22.7335 73.3786 23.7288 75.105 25.343C76.8314 26.9304 77.6948 29.0289 77.6948 31.6384C77.6948 33.1451 77.3979 34.4633 76.8045 35.5932C76.238 36.7232 75.4423 37.6781 74.4171 38.4584C73.3919 39.2116 72.2051 39.7902 70.8562 40.1937C69.5344 40.5704 68.145 40.7587 66.6883 40.7587ZM93.2226 40.5569C91.3343 40.5569 89.6481 40.1669 88.1645 39.3866C86.6808 38.5795 85.5073 37.4092 84.644 35.8757C83.7807 34.3422 83.3491 32.4723 83.3491 30.2663V20.0968C83.3491 19.5858 83.5246 19.1551 83.8752 18.8055C84.2529 18.4287 84.698 18.2405 85.2105 18.2405C85.7501 18.2405 86.1952 18.4287 86.5459 18.8055C86.9236 19.1551 87.1124 19.5858 87.1124 20.0968V30.2663C87.1124 31.8266 87.4092 33.118 88.0026 34.1404C88.596 35.1628 89.392 35.9296 90.39 36.4407C91.4152 36.9249 92.5616 37.1671 93.8296 37.1671C95.0704 37.1671 96.163 36.9249 97.1072 36.4407C98.0784 35.9564 98.8472 35.3107 99.4137 34.5036C100.007 33.6697 100.304 32.7415 100.304 31.7191H102.732C102.678 33.3872 102.233 34.8936 101.397 36.2389C100.587 37.5842 99.4678 38.6467 98.0379 39.427C96.6081 40.1802 95.0031 40.5569 93.2226 40.5569ZM102.165 40.3551C101.626 40.3551 101.181 40.1802 100.83 39.8305C100.479 39.4808 100.304 39.0369 100.304 38.4988V20.0968C100.304 19.5587 100.479 19.1148 100.83 18.7651C101.181 18.4155 101.626 18.2405 102.165 18.2405C102.705 18.2405 103.15 18.4155 103.501 18.7651C103.851 19.1148 104.027 19.5587 104.027 20.0968V38.4988C104.027 39.0369 103.851 39.4808 103.501 39.8305C103.15 40.1802 102.705 40.3551 102.165 40.3551ZM130.114 40.3955C129.575 40.3955 129.116 40.2205 128.738 39.8709C128.388 39.4941 128.212 39.0502 128.212 38.5391V28.3696C128.212 26.7823 127.915 25.4909 127.322 24.4956C126.728 23.4731 125.933 22.7199 124.935 22.2357C123.936 21.7246 122.79 21.4689 121.495 21.4689C120.281 21.4689 119.189 21.711 118.217 22.1953C117.246 22.6796 116.464 23.3252 115.87 24.1324C115.304 24.9395 115.021 25.8676 115.021 26.9169H112.593C112.62 25.2219 113.051 23.7153 113.888 22.3971C114.724 21.0518 115.857 20.0026 117.287 19.2494C118.716 18.4691 120.322 18.0791 122.102 18.0791C123.99 18.0791 125.676 18.4826 127.16 19.2897C128.644 20.07 129.817 21.2268 130.681 22.7603C131.544 24.2938 131.976 26.1636 131.976 28.3696V38.5391C131.976 39.0502 131.787 39.4941 131.409 39.8709C131.058 40.2205 130.627 40.3955 130.114 40.3955ZM113.159 40.3955C112.62 40.3955 112.175 40.2205 111.824 39.8709C111.473 39.5212 111.298 39.0773 111.298 38.5391V20.1372C111.298 19.5722 111.473 19.1283 111.824 18.8055C112.175 18.4558 112.62 18.2809 113.159 18.2809C113.726 18.2809 114.171 18.4558 114.495 18.8055C114.845 19.1283 115.021 19.5722 115.021 20.1372V38.5391C115.021 39.0773 114.845 39.5212 114.495 39.8709C114.171 40.2205 113.726 40.3955 113.159 40.3955ZM153.369 40.7587C151.184 40.7587 149.134 40.3551 147.218 39.548C145.33 38.7141 143.671 37.5571 142.241 36.0775C140.838 34.5979 139.732 32.8759 138.923 30.912C138.113 28.9482 137.709 26.8361 137.709 24.5763C137.709 22.3432 138.1 20.2583 138.882 18.3212C139.692 16.3573 140.811 14.6354 142.241 13.1558C143.671 11.6761 145.33 10.5192 147.218 9.68521C149.107 8.85121 151.157 8.4342 153.369 8.4342C155.392 8.4342 157.173 8.71668 158.71 9.28166C160.248 9.81973 161.772 10.7075 163.283 11.9451C163.499 12.1065 163.647 12.2948 163.728 12.5101C163.836 12.6984 163.876 12.9002 163.849 13.1154C163.849 13.3037 163.809 13.4921 163.728 13.6804C163.701 14.0839 163.526 14.4068 163.202 14.6489C162.905 14.891 162.541 15.0256 162.109 15.0524C161.705 15.0524 161.3 14.9046 160.895 14.6085C159.87 13.7207 158.791 13.0481 157.658 12.5908C156.525 12.1334 155.095 11.9047 153.369 11.9047C151.723 11.9047 150.172 12.241 148.715 12.9136C147.286 13.5861 146.018 14.501 144.912 15.6578C143.806 16.8145 142.942 18.1598 142.322 19.6933C141.702 21.2268 141.391 22.8545 141.391 24.5763C141.391 26.3519 141.702 28.0064 142.322 29.5399C142.942 31.0466 143.806 32.3916 144.912 33.5755C146.018 34.7322 147.286 35.6336 148.715 36.2793C150.172 36.9249 151.723 37.2478 153.369 37.2478C154.799 37.2478 156.148 37.0192 157.415 36.5617C158.683 36.0775 159.884 35.405 161.017 34.544C161.448 34.2211 161.88 34.0865 162.312 34.1404C162.743 34.1672 163.108 34.3422 163.404 34.665C163.701 34.9611 163.849 35.3779 163.849 35.9161C163.849 36.1582 163.809 36.4003 163.728 36.6424C163.647 36.8578 163.499 37.0595 163.283 37.2478C161.88 38.4584 160.329 39.3462 158.629 39.9112C156.957 40.4762 155.203 40.7587 153.369 40.7587ZM174.023 50C173.78 50 173.497 49.9328 173.173 49.7982C172.094 49.314 171.797 48.5472 172.283 47.498L184.908 19.3301C185.394 18.3077 186.162 18.0119 187.215 18.4423C188.32 18.8997 188.631 19.6665 188.145 20.7425L175.48 48.8701C175.156 49.6233 174.67 50 174.023 50ZM178.717 39.548C178.231 39.7633 177.786 39.7902 177.381 39.6287C176.977 39.4673 176.653 39.158 176.41 38.7006L167.225 20.7022C166.982 20.2447 166.941 19.8008 167.103 19.3704C167.292 18.9401 167.629 18.6305 168.115 18.4423C168.573 18.227 169.005 18.2001 169.41 18.3616C169.841 18.4962 170.165 18.8055 170.381 19.2897L179.243 37.2478C179.513 37.732 179.607 38.1895 179.526 38.6199C179.445 39.0234 179.175 39.3327 178.717 39.548ZM201.234 40.5165C199.103 40.5165 197.201 40.0323 195.529 39.0638C193.856 38.0684 192.534 36.7367 191.563 35.0686C190.619 33.3737 190.147 31.4635 190.147 29.3382C190.147 27.159 190.605 25.2219 191.522 23.527C192.467 21.8321 193.748 20.5139 195.367 19.5722C196.985 18.6037 198.86 18.1194 200.991 18.1194C202.583 18.1194 204.053 18.4287 205.402 19.0476C206.751 19.6665 207.951 20.5946 209.003 21.8321C209.354 22.2088 209.475 22.6124 209.368 23.0428C209.287 23.4731 209.017 23.8499 208.558 24.1727C208.235 24.4148 207.857 24.4955 207.425 24.4148C206.993 24.3341 206.616 24.1055 206.292 23.7288C204.862 22.1953 203.096 21.4286 200.991 21.4286C199.561 21.4286 198.293 21.7649 197.188 22.4374C196.108 23.1099 195.259 24.0381 194.638 25.2219C194.045 26.3787 193.748 27.7508 193.748 29.3382C193.748 30.8448 194.058 32.1898 194.679 33.3737C195.326 34.5575 196.216 35.499 197.349 36.1985C198.482 36.871 199.777 37.2074 201.234 37.2074C202.232 37.2074 203.122 37.0864 203.905 36.8442C204.687 36.6021 205.388 36.2121 206.009 35.6739C206.386 35.3511 206.778 35.1761 207.182 35.1493C207.614 35.1225 207.992 35.2436 208.315 35.5125C208.72 35.8622 208.949 36.2524 209.003 36.6828C209.057 37.1132 208.909 37.4899 208.558 37.8128C206.616 39.6152 204.174 40.5165 201.234 40.5165ZM220.562 40.3551C219.429 40.3551 218.417 40.0458 217.527 39.427C216.636 38.8081 215.935 37.9606 215.423 36.8846C214.937 35.7815 214.694 34.5172 214.694 33.0912V10.6537C214.694 10.1157 214.856 9.68521 215.18 9.36237C215.53 9.01263 215.975 8.83775 216.515 8.83775C217.082 8.83775 217.527 9.01263 217.85 9.36237C218.201 9.68521 218.376 10.1157 218.376 10.6537V33.0912C218.376 34.1404 218.579 35.0014 218.983 35.6739C219.415 36.3464 219.941 36.6828 220.562 36.6828H221.573C222.086 36.6828 222.49 36.8578 222.787 37.2074C223.084 37.5303 223.232 37.9742 223.232 38.5391C223.232 39.0773 223.003 39.5212 222.544 39.8709C222.113 40.1937 221.546 40.3551 220.845 40.3551H220.562ZM236.411 40.5165C234.172 40.5165 232.19 40.0458 230.463 39.1041C228.763 38.1356 227.428 36.8174 226.457 35.1493C225.486 33.4544 225 31.5173 225 29.3382C225 27.1322 225.459 25.1951 226.376 23.527C227.293 21.8321 228.561 20.5139 230.18 19.5722C231.798 18.6037 233.673 18.1194 235.804 18.1194C237.882 18.1194 239.676 18.5902 241.186 19.5319C242.696 20.4465 243.856 21.7246 244.665 23.3656C245.475 24.9798 245.879 26.8497 245.879 28.975C245.879 29.4324 245.718 29.8224 245.395 30.1453C245.098 30.4413 244.694 30.5892 244.181 30.5892H227.549V27.6029H244.222L242.563 28.7732C242.535 27.3472 242.253 26.0694 241.712 24.9395C241.173 23.8095 240.404 22.9217 239.406 22.276C238.408 21.6303 237.207 21.3075 235.804 21.3075C234.267 21.3075 232.931 21.6572 231.798 22.3567C230.692 23.0563 229.843 24.0113 229.249 25.2219C228.656 26.4326 228.359 27.8047 228.359 29.3382C228.359 30.8717 228.696 32.2437 229.37 33.4544C230.072 34.6382 231.016 35.5797 232.203 36.2793C233.417 36.9788 234.82 37.3285 236.411 37.3285C237.275 37.3285 238.165 37.1671 239.082 36.8442C240.026 36.5214 240.768 36.1446 241.308 35.7143C241.685 35.4183 242.09 35.2704 242.522 35.2704C242.952 35.2436 243.331 35.3646 243.654 35.6336C244.058 36.0103 244.276 36.4271 244.302 36.8846C244.33 37.315 244.14 37.6917 243.736 38.0145C242.819 38.7409 241.672 39.3462 240.296 39.8305C238.947 40.2879 237.652 40.5165 236.411 40.5165Z" fill="white"/>
<path d="M22.6679 20.0954C21.7457 20.0954 20.8611 19.7519 20.2088 19.1409C19.5565 18.5297 19.1902 17.7009 19.1902 16.8366C19.1902 15.9723 19.5565 15.1435 20.2088 14.5322C20.8611 13.9213 21.7457 13.5778 22.6679 13.5778C22.6795 13.5778 22.6911 13.5777 22.7027 13.5777C25.6103 13.5663 28.3955 12.479 30.4521 10.5522C32.5166 8.61769 33.6783 5.99476 33.6816 3.25889C33.6816 2.39462 34.0478 1.56576 34.7001 0.954606C35.3524 0.343481 36.237 0.000155717 37.1593 0.000155717C38.0818 0.000155717 38.9664 0.343481 39.6187 0.954606C40.271 1.56576 40.6372 2.39462 40.6372 3.25889C40.6319 7.67764 38.7749 11.9158 35.4698 15.0627C35.4361 15.0947 35.4023 15.1267 35.3683 15.1585C34.7265 15.7599 34.0412 16.3111 33.3193 16.8095C30.252 18.9271 26.5244 20.0913 22.6679 20.0954Z" fill="white"/>
<path d="M3.47814 47.2512C2.55572 47.2512 1.67107 46.908 1.01881 46.2967C0.367398 45.6863 0.00103312 44.8589 9.09985e-05 43.9958C8.97841e-05 43.9946 0.000118576 43.9935 0.000118576 43.9924C0.00538339 39.6018 1.83871 35.3894 5.10448 32.2488C5.15896 32.1964 5.21385 32.1443 5.26913 32.0925C5.92063 31.4821 6.61697 30.9233 7.35088 30.419C10.4119 28.3156 14.1266 27.1598 17.9694 27.1559C18.8919 27.1559 19.7765 27.4992 20.4285 28.1104C21.0809 28.7213 21.4473 29.5501 21.4473 30.4147C21.4473 31.2788 21.0809 32.1076 20.4285 32.7188C19.7765 33.33 18.8919 33.6733 17.9694 33.6733C15.0495 33.6763 12.25 34.7644 10.1854 36.6989C8.12069 38.6336 6.95924 41.2564 6.95591 43.9924C6.95591 44.8565 6.58952 45.6855 5.93732 46.2967C5.28511 46.908 4.40052 47.2512 3.47814 47.2512Z" fill="white"/>
<path d="M22.6679 47.2513C22.6666 47.2513 22.6652 47.2513 22.6638 47.2513C21.7479 47.2431 20.8724 46.8969 20.2272 46.2874C19.5813 45.6772 19.2187 44.8522 19.2187 43.9925C19.2187 43.133 19.5813 42.3081 20.2272 41.6979C20.8734 41.0874 21.7505 40.7411 22.6679 40.734C24.1144 40.734 25.5466 40.4668 26.8827 39.9486C28.2188 39.4298 29.4328 38.6697 30.4557 37.7114C31.4783 36.7531 32.2894 35.6155 32.8431 34.3637C33.3965 33.1117 33.6813 31.7697 33.6813 30.4145C33.6813 29.0593 33.3965 27.7176 32.8431 26.4653C32.2894 25.2136 31.4783 24.076 30.4557 23.1177C29.4328 22.1593 28.2188 21.3992 26.8827 20.8808C25.5466 20.3623 24.1144 20.0954 22.6679 20.0954C21.7457 20.0954 20.8611 19.7519 20.2088 19.1409C19.5565 18.5297 19.1902 17.7009 19.1902 16.8366C19.1902 15.9723 19.5565 15.1435 20.2088 14.5322C20.8611 13.9213 21.7457 13.5778 22.6679 13.5778C22.6795 13.5778 22.6911 13.5777 22.7027 13.5777C25.0563 13.5741 27.3877 14.0036 29.5644 14.8418C30.8988 15.3557 32.159 16.0169 33.3193 16.8095C34.0615 17.3165 34.7628 17.8772 35.4165 18.4875C37.0919 20.0517 38.4216 21.9106 39.3285 23.9572C40.039 25.5602 40.4796 27.254 40.6372 28.9779C40.6808 29.4549 40.7028 29.9342 40.7028 30.4145C40.7028 30.8949 40.6808 31.3742 40.6372 31.8512C40.4796 33.575 40.039 35.2688 39.3285 36.8719C38.4216 38.9185 37.0919 40.7774 35.4165 42.3415C33.741 43.9059 31.7523 45.1449 29.5644 45.9875C27.4195 46.8135 25.1245 47.2424 22.806 47.2513C22.7599 47.2515 22.7139 47.2515 22.6679 47.2513Z" fill="white"/>
<path d="M35.123 15.383C35.2402 15.2776 35.3558 15.1708 35.4698 15.0627C37.0519 13.5611 38.3191 11.7926 39.203 9.84909C40.1506 7.76548 40.6385 5.52378 40.6372 3.25889C40.6372 2.39462 40.271 1.56576 39.6187 0.954606C38.9664 0.343481 38.0818 0.000155717 37.1593 0.000155717C36.237 0.000155717 35.3524 0.343481 34.7001 0.954606C34.0478 1.56576 33.6816 2.39462 33.6816 3.25889C33.6806 5.01178 33.2032 6.73561 32.2942 8.26775C31.3856 9.79989 30.0751 11.0899 28.4867 12.0162C30.9284 12.6851 33.1906 13.8327 35.123 15.383Z" fill="white"/>
<path d="M17.9694 33.6733C14.1274 33.6733 10.4123 32.5204 7.35088 30.419C6.6149 29.9138 5.9167 29.3538 5.26358 28.7418C1.89371 25.5844 0.000562754 21.3019 0.000562754 16.8365C0.000562754 12.3713 1.89371 8.08881 5.26358 4.93132C8.63343 1.77386 13.2039 3.82837e-07 17.9696 3.82837e-07C18.8921 3.82837e-07 19.7767 0.343326 20.4287 0.954451C21.081 1.56558 21.4475 2.39444 21.4475 3.2587C21.4475 4.12297 21.081 4.95183 20.4287 5.56298C19.7767 6.17411 18.8921 6.51743 17.9696 6.51743C16.5233 6.51743 15.0912 6.78434 13.7551 7.30293C12.4187 7.82152 11.2048 8.58162 10.1821 9.53983C9.1594 10.4981 8.34815 11.6356 7.79467 12.8876C7.2412 14.1396 6.95635 15.4816 6.95635 16.8365C6.95635 18.1917 7.2412 19.5337 7.79467 20.7857C8.34815 22.0375 9.1594 23.1751 10.1821 24.1334C11.2048 25.0915 12.4187 25.8518 13.7551 26.3703C15.0912 26.8888 16.5232 27.1559 17.9694 27.1559C18.8919 27.1559 19.7765 27.4992 20.4285 28.1104C21.0809 28.7213 21.4473 29.5501 21.4473 30.4147C21.4473 31.2788 21.0809 32.1076 20.4285 32.7188C19.7765 33.33 18.8919 33.6733 17.9694 33.6733Z" fill="white"/>
<path d="M5.51457 31.8681C5.3756 31.993 5.23888 32.12 5.10448 32.2488C3.55173 33.7373 2.3067 35.4845 1.43452 37.4021C0.486816 39.4858 -0.00108513 41.7274 0.000118576 43.9924C0.000118576 43.9935 8.97841e-05 43.9946 9.09985e-05 43.9958C-0.0032208 44.425 0.0838926 44.8505 0.256523 45.2479C0.429601 45.6463 0.685171 46.0088 1.00851 46.3143C1.33184 46.6197 1.71652 46.8624 2.14038 47.0276C2.56421 47.1931 3.01883 47.2784 3.47798 47.2784C3.62804 47.2784 3.77762 47.2693 3.92579 47.2513C4.23102 47.2141 4.53029 47.139 4.81563 47.0276C5.23946 46.8624 5.62414 46.6197 5.94747 46.3143C6.27081 46.0088 6.52638 45.6463 6.69946 45.2479C6.87254 44.8495 6.95973 44.4228 6.95591 43.9924C6.95686 42.2395 7.43423 40.5159 8.34316 38.9834C9.25206 37.4512 10.5625 36.1614 12.1508 35.235C9.70916 34.566 7.44706 33.4185 5.51457 31.8681Z" fill="white"/>
<path fill-rule="evenodd" clip-rule="evenodd" d="M39.3285 23.9572C40.039 25.5602 40.4796 27.254 40.6372 28.9779V31.8512C40.4796 33.575 40.039 35.2688 39.3285 36.8719C38.4216 38.9185 37.0919 40.7774 35.4165 42.3415C33.741 43.9059 31.7523 45.1449 29.5644 45.9875C27.4195 46.8135 25.1245 47.2424 22.806 47.2513H22.6638C21.7479 47.2431 20.8724 46.8969 20.2272 46.2874C19.5813 45.6772 19.2187 44.8522 19.2187 43.9925C19.2187 43.133 19.5813 42.3081 20.2272 41.6979C20.8734 41.0874 21.7505 40.7411 22.6679 40.734C24.1144 40.734 25.5466 40.4668 26.8827 39.9486C28.2188 39.4298 29.4328 38.6697 30.4557 37.7114C31.4783 36.7531 32.2894 35.6155 32.8431 34.3637C33.3965 33.1117 33.6813 31.7697 33.6813 30.4145C33.6813 29.0593 33.3965 27.7176 32.8431 26.4653C32.2894 25.2136 31.4783 24.076 30.4557 23.1177C29.4328 22.1593 28.2188 21.3992 26.8827 20.8808C25.5466 20.3623 24.1144 20.0954 22.6679 20.0954C21.7457 20.0954 20.8611 19.7519 20.2088 19.1409C19.5565 18.5297 19.1902 17.7009 19.1902 16.8366C19.1902 15.9723 19.5565 15.1435 20.2088 14.5322C20.8611 13.9213 21.7457 13.5778 22.6679 13.5778L22.7027 13.5777C25.6103 13.5663 28.3955 12.479 30.4521 10.5522C32.5166 8.61769 33.6783 5.99476 33.6816 3.25889C33.6816 2.39462 34.0478 1.56576 34.7001 0.954606C35.3524 0.343481 36.237 0.000155717 37.1593 0.000155717C38.0818 0.000155717 38.9664 0.343481 39.6187 0.954606C40.271 1.56576 40.6372 2.39462 40.6372 3.25889C40.6385 5.52378 40.1506 7.76548 39.203 9.84909C38.3191 11.7926 37.0519 13.5611 35.4698 15.0627C35.4361 15.0947 35.4023 15.1267 35.3683 15.1585C34.7265 15.7599 34.0412 16.3111 33.3193 16.8095C34.0615 17.3165 34.7628 17.8772 35.4165 18.4875C37.0919 20.0517 38.4216 21.9106 39.3285 23.9572ZM9.09985e-05 47.2513H3.92579C4.23102 47.2141 4.53029 47.139 4.81563 47.0276C5.23946 46.8624 5.62414 46.6197 5.94747 46.3143C6.27081 46.0088 6.52638 45.6463 6.69946 45.2479C6.87254 44.8495 6.95973 44.4228 6.95591 43.9924C6.95924 41.2564 8.12069 38.6336 10.1854 36.6989C12.25 34.7644 15.0495 33.6763 17.9694 33.6733C18.8919 33.6733 19.7765 33.33 20.4285 32.7188C21.0809 32.1076 21.4473 31.2788 21.4473 30.4147C21.4473 29.5501 21.0809 28.7213 20.4285 28.1104C19.7765 27.4992 18.8919 27.1559 17.9694 27.1559C16.5232 27.1559 15.0912 26.8888 13.7551 26.3703C12.4187 25.8518 11.2048 25.0915 10.1821 24.1334C9.1594 23.1751 8.34815 22.0375 7.79467 20.7857C7.2412 19.5337 6.95635 18.1917 6.95635 16.8365C6.95635 15.4816 7.2412 14.1396 7.79467 12.8876C8.34815 11.6356 9.1594 10.4981 10.1821 9.53983C11.2048 8.58162 12.4187 7.82152 13.7551 7.30293C15.0912 6.78434 16.5233 6.51743 17.9696 6.51743C18.8921 6.51743 19.7767 6.17411 20.4287 5.56298C21.081 4.95183 21.4475 4.12297 21.4475 3.2587C21.4475 2.39444 21.081 1.56558 20.4287 0.954451C19.7767 0.343326 18.8921 3.82837e-07 17.9696 3.82837e-07C13.2039 3.82837e-07 8.63343 1.77386 5.26358 4.93132C1.89371 8.08881 0.000562754 12.3713 0.000562754 16.8365C0.000562754 21.3019 1.89371 25.5844 5.26358 28.7418C5.9167 29.3538 6.6149 29.9138 7.35088 30.419C6.61697 30.9233 5.92063 31.4821 5.26913 32.0925C5.21385 32.1443 5.15896 32.1964 5.10448 32.2488C3.55173 33.7373 2.3067 35.4845 1.43452 37.4021C0.486816 39.4858 -0.00108513 41.7274 0.000118576 43.9924L9.09985e-05 43.9958V47.2513Z" fill="white"/>
</svg>
